<?xml version="1.0" encoding="UTF-8" standalone="no"?>
<!DOCTYPE svg PUBLIC "-//W3C//DTD SVG 1.1//EN" "http://www.w3.org/Graphics/SVG/1.1/DTD/svg11.dtd">
<svg width="100%" height="100%" viewBox="0 0 760 404" version="1.1" xmlns="http://www.w3.org/2000/svg" xmlns:xlink="http://www.w3.org/1999/xlink" xml:space="preserve" xmlns:serif="http://www.serif.com/" style="fill-rule:evenodd;clip-rule:evenodd;stroke-linejoin:round;stroke-miterlimit:2;">
    <g transform="matrix(1,0,0,1,-160,-1556.2)">
        <g transform="matrix(1,0,0,1,1142.35,-0.538646)">
            <g transform="matrix(1.31188,0,0,1.31188,-1858.7,1050.86)">
                <path d="M967.874,633.005L980.128,633.005L978.654,638.073L972.296,638.073C973.279,639.885 973.771,641.605 973.771,643.233C973.771,646.027 973.011,648.607 971.49,650.972C969.97,653.337 967.728,655.226 964.764,656.638C961.801,658.051 958.507,658.758 954.883,658.758C953.93,658.758 952.879,658.689 951.727,658.55C950.575,658.412 949.324,658.22 947.972,657.974C945.945,659.019 944.671,659.848 944.149,660.462C943.78,660.892 943.596,661.337 943.596,661.798C943.596,662.351 943.826,662.827 944.287,663.226C945.085,663.933 946.268,664.455 947.834,664.793C954.099,666.144 958.23,667.234 960.227,668.063C962.96,669.2 965.025,670.659 966.423,672.44C967.82,674.221 968.519,676.371 968.519,678.89C968.519,682.729 966.753,686.084 963.221,688.955C959.689,691.827 954.222,693.263 946.821,693.263C939.358,693.263 933.86,692.034 930.328,689.577C927.779,687.796 926.504,685.677 926.504,683.22C926.504,681.347 927.341,679.611 929.015,678.014C930.689,676.417 934.275,675.004 939.772,673.776C937.899,672.732 936.639,671.78 935.995,670.92C935.104,669.753 934.659,668.539 934.659,667.28C934.659,665.223 935.48,663.411 937.123,661.844C938.766,660.278 941.523,658.727 945.392,657.191C942.383,655.993 940.21,654.45 938.874,652.561C937.538,650.673 936.87,648.469 936.87,645.951C936.87,643.279 937.676,640.737 939.288,638.326C940.901,635.915 943.281,633.957 946.429,632.453C949.577,630.948 953.193,630.195 957.278,630.195C959.889,630.195 962.207,630.487 964.234,631.07C965.279,631.378 966.492,632.023 967.874,633.005ZM942.352,674.836C939.434,675.972 937.446,677.2 936.386,678.521C935.327,679.842 934.797,681.27 934.797,682.805C934.797,684.802 935.849,686.606 937.952,688.218C940.056,689.831 943.412,690.637 948.018,690.637C951.857,690.637 954.637,689.938 956.357,688.541C958.077,687.143 958.937,685.508 958.937,683.635C958.937,681.976 958.146,680.625 956.564,679.581C954.982,678.536 951.95,677.446 947.466,676.31C945.377,675.757 943.673,675.265 942.352,674.836ZM1149.98,659.08C1152.1,659.08 1153.9,659.817 1155.37,661.291C1156.85,662.766 1157.58,664.547 1157.58,666.635C1157.58,668.724 1156.84,670.505 1155.35,671.979C1153.86,673.453 1152.07,674.191 1149.98,674.191C1147.89,674.191 1146.11,673.453 1144.64,671.979C1143.16,670.505 1142.43,668.724 1142.43,666.635C1142.43,664.547 1143.16,662.766 1144.64,661.291C1146.11,659.817 1147.89,659.08 1149.98,659.08ZM903.562,630.195L901.535,644.43L899.831,644.43C899.585,640.745 898.456,637.843 896.445,635.723C894.433,633.604 892.276,632.545 889.972,632.545C888.559,632.545 887.392,632.959 886.471,633.788C885.55,634.618 885.089,635.616 885.089,636.783C885.089,637.766 885.288,638.687 885.688,639.547C886.087,640.407 886.978,641.574 888.36,643.048C893.212,648.269 896.161,651.863 897.205,653.828C898.249,655.794 898.771,657.898 898.771,660.14C898.771,662.566 898.157,664.862 896.928,667.027C895.7,669.192 893.865,670.927 891.423,672.233C888.982,673.538 886.44,674.191 883.799,674.191C882.018,674.191 879.822,673.837 877.211,673.131C875.491,672.64 874.201,672.394 873.341,672.394C872.574,672.394 871.975,672.509 871.545,672.739C871.115,672.97 870.639,673.453 870.117,674.191L868.412,674.191L870.669,658.85L872.144,658.85C873.219,662.566 874.224,665.215 875.161,666.797C876.098,668.378 877.349,669.637 878.916,670.574C880.482,671.511 881.987,671.979 883.43,671.979C885.12,671.979 886.517,671.449 887.623,670.39C888.728,669.33 889.281,668.063 889.281,666.589C889.281,665.146 888.92,663.748 888.198,662.397C887.477,661.046 885.811,658.942 883.2,656.086C879.607,652.185 877.242,649.175 876.105,647.056C875.307,645.521 874.908,643.77 874.908,641.804C874.908,638.487 876.113,635.723 878.524,633.512C880.935,631.301 884.321,630.195 888.682,630.195C890.586,630.195 892.92,630.533 895.685,631.209C897.067,631.546 898.172,631.715 899.002,631.715C900.199,631.715 901.167,631.209 901.904,630.195L903.562,630.195ZM1090.05,661.798L1091.43,663.042C1088.45,666.605 1085.52,669.215 1082.63,670.874C1078.79,673.085 1074.81,674.191 1070.7,674.191C1067.93,674.191 1065.49,673.599 1063.35,672.417C1061.22,671.234 1059.64,669.576 1058.63,667.442C1057.62,665.307 1057.11,663.119 1057.11,660.877C1057.11,655.84 1058.47,650.888 1061.21,646.02C1063.94,641.152 1067.55,637.297 1072.04,634.456C1076.52,631.616 1080.93,630.195 1085.26,630.195C1088.73,630.195 1091.34,630.963 1093.09,632.499C1094.84,634.034 1095.71,635.938 1095.71,638.211C1095.71,640.269 1095.05,642.019 1093.73,643.463C1092.41,644.906 1090.94,645.628 1089.31,645.628C1087.9,645.628 1086.72,645.167 1085.79,644.246C1084.85,643.325 1084.38,642.234 1084.38,640.975C1084.38,639.317 1085.21,637.873 1086.87,636.645C1088.01,635.785 1088.57,635.032 1088.57,634.387C1088.57,633.835 1088.34,633.389 1087.88,633.051C1087.27,632.56 1086.47,632.314 1085.49,632.314C1082.91,632.314 1080.48,633.359 1078.21,635.447C1075.2,638.211 1072.89,641.712 1071.3,645.951C1069.7,650.189 1068.9,654.212 1068.9,658.021C1068.9,661.03 1069.72,663.434 1071.34,665.23C1072.97,667.027 1074.91,667.925 1077.15,667.925C1079.11,667.925 1081.24,667.418 1083.53,666.405C1085.82,665.391 1087.99,663.856 1090.05,661.798ZM929.222,630.195L919.778,662.95C919.256,664.823 918.995,666.052 918.995,666.635C918.995,666.973 919.133,667.288 919.41,667.58C919.686,667.871 919.978,668.017 920.285,668.017C920.807,668.017 921.329,667.787 921.851,667.326C923.234,666.19 924.892,664.132 926.827,661.153L928.393,662.075C923.756,670.152 918.826,674.191 913.605,674.191C911.609,674.191 910.02,673.63 908.837,672.509C907.655,671.388 907.064,669.968 907.064,668.248C907.064,667.111 907.325,665.668 907.847,663.917L914.25,641.897C914.864,639.777 915.172,638.18 915.172,637.105C915.172,636.43 914.88,635.831 914.296,635.309C913.713,634.787 912.914,634.526 911.901,634.526C911.44,634.526 910.887,634.541 910.242,634.572L910.841,632.729L926.458,630.195L929.222,630.195ZM841.324,655.625C841.047,657.621 840.909,659.264 840.909,660.554C840.909,662.858 841.577,664.7 842.913,666.082C844.249,667.465 846.038,668.156 848.28,668.156C850.43,668.156 852.588,667.633 854.753,666.589C856.918,665.545 859.429,663.718 862.285,661.107L863.667,662.351C860.135,666.62 856.695,669.66 853.348,671.473C850,673.285 846.299,674.191 842.245,674.191C837.116,674.191 833.569,672.962 831.603,670.505C829.638,668.048 828.655,665.207 828.655,661.982C828.655,656.946 830.121,651.909 833.055,646.872C835.988,641.835 839.98,637.796 845.032,634.756C850.084,631.715 855.16,630.195 860.258,630.195C862.838,630.195 864.788,630.809 866.109,632.038C867.429,633.266 868.09,634.817 868.09,636.691C868.09,638.933 867.445,641.113 866.155,643.233C864.373,646.119 862.131,648.446 859.429,650.212C856.726,651.978 853.701,653.322 850.353,654.243C848.111,654.857 845.101,655.318 841.324,655.625ZM1127.5,630.195C1129.93,630.195 1132.21,630.756 1134.34,631.877C1136.48,632.998 1138.09,634.556 1139.18,636.553C1140.27,638.549 1140.82,640.76 1140.82,643.186C1140.82,648.162 1139.42,653.137 1136.65,658.113C1133.87,663.088 1130.2,667.012 1125.66,669.883C1121.11,672.755 1116.54,674.191 1111.93,674.191C1107.75,674.191 1104.52,672.947 1102.23,670.459C1099.94,667.971 1098.8,664.931 1098.8,661.337C1098.8,657.068 1099.65,653.068 1101.36,649.337C1103.06,645.605 1105.23,642.35 1107.85,639.57C1110.48,636.791 1113.5,634.533 1116.9,632.798C1120.31,631.063 1123.85,630.195 1127.5,630.195ZM1003.76,630.195L998.049,649.959C1001.89,644.185 1004.76,640.238 1006.66,638.119C1009.46,635.048 1011.87,632.959 1013.9,631.854C1015.92,630.748 1017.83,630.195 1019.61,630.195C1021.21,630.195 1022.57,630.786 1023.71,631.969C1024.85,633.151 1025.41,634.695 1025.41,636.599C1025.41,638.319 1025.05,640.407 1024.31,642.864L1018.41,662.535C1017.92,664.255 1017.67,665.376 1017.67,665.898C1017.67,666.205 1017.79,666.482 1018.02,666.727C1018.25,666.973 1018.49,667.096 1018.73,667.096C1019.04,667.096 1019.36,666.973 1019.7,666.727C1020.78,665.837 1021.87,664.578 1022.97,662.95C1023.25,662.52 1023.69,661.875 1024.31,661.015L1026.06,662.075C1021.54,669.66 1016.8,673.453 1011.82,673.453C1009.92,673.453 1008.43,672.962 1007.36,671.979C1006.28,670.996 1005.74,669.768 1005.74,668.294C1005.74,667.004 1006.11,665.084 1006.85,662.535L1012.61,642.864C1013.01,641.574 1013.21,640.622 1013.21,640.008C1013.21,639.67 1013.07,639.37 1012.79,639.109C1012.51,638.848 1012.19,638.718 1011.82,638.718C1010.66,638.718 1009.24,639.516 1007.59,641.113C1003.35,645.167 999.247,651.202 995.285,659.218L991.507,672.901L979.76,672.901L988.374,643.325C989.204,640.407 989.618,638.334 989.618,637.105C989.618,636.583 989.495,636.146 989.25,635.792C989.004,635.439 988.605,635.163 988.052,634.963C987.499,634.764 986.455,634.664 984.919,634.664L985.426,632.913L1000.95,630.195L1003.76,630.195ZM755.038,672.901L755.59,671.196C758.6,671.196 760.881,670.574 762.432,669.33C763.983,668.086 765.265,665.76 766.278,662.351L777.611,622.962C778.348,620.383 778.717,618.263 778.717,616.605C778.717,615.192 778.287,614.148 777.427,613.472C776.567,612.797 774.371,612.351 770.839,612.136L771.392,610.432L792.768,610.432C804.039,610.432 812.17,612.712 817.161,617.273C822.152,621.834 824.647,628.23 824.647,636.46C824.647,642.265 823.495,647.133 821.192,651.064C816.677,658.742 811.318,664.301 805.114,667.741C798.91,671.181 790.94,672.901 781.204,672.901L755.038,672.901ZM1125.61,632.637C1123.99,632.637 1122.63,633.113 1121.56,634.065C1119.41,636 1116.98,640.522 1114.28,647.632C1111.58,654.742 1110.23,661.153 1110.23,666.866C1110.23,668.278 1110.65,669.445 1111.52,670.367C1112.38,671.288 1113.39,671.749 1114.56,671.749C1115.75,671.749 1116.81,671.38 1117.74,670.643C1119.09,669.538 1120.74,667.058 1122.71,663.203C1124.68,659.349 1126.29,655.095 1127.55,650.442C1128.81,645.789 1129.44,641.528 1129.44,637.658C1129.44,636.061 1129.05,634.825 1128.28,633.95C1127.52,633.074 1126.63,632.637 1125.61,632.637ZM794.058,614.117L780.329,661.476C779.684,663.656 779.362,665.223 779.362,666.175C779.362,667.035 779.715,667.726 780.421,668.248C781.343,668.954 782.709,669.307 784.521,669.307C788.852,669.307 792.722,667.956 796.131,665.253C800.492,661.783 803.816,657.114 806.104,651.248C808.393,645.382 809.537,639.562 809.537,633.788C809.537,629.612 808.876,625.972 807.556,622.87C806.235,619.768 804.193,617.403 801.429,615.776C799.494,614.67 797.037,614.117 794.058,614.117ZM958.246,632.453C956.741,632.453 955.466,632.944 954.422,633.927C952.763,635.432 951.312,637.95 950.068,641.482C948.825,645.014 948.203,648.361 948.203,651.525C948.203,653.03 948.64,654.22 949.516,655.095C950.391,655.97 951.474,656.408 952.763,656.408C954.023,656.408 955.113,655.978 956.034,655.118C957.785,653.429 959.305,650.734 960.595,647.033C961.885,643.332 962.53,639.977 962.53,636.967C962.53,635.616 962.115,634.526 961.286,633.696C960.457,632.867 959.443,632.453 958.246,632.453ZM841.738,653.229C844.441,652.83 846.537,652.285 848.027,651.594C849.516,650.903 850.975,649.797 852.403,648.277C853.831,646.757 855.068,644.837 856.112,642.518C857.156,640.2 857.678,638.027 857.678,636C857.678,635.14 857.44,634.464 856.964,633.973C856.488,633.481 855.881,633.236 855.144,633.236C853.67,633.236 852.012,634.265 850.169,636.322C846.791,640.069 843.98,645.705 841.738,653.229ZM668.009,648.017L755.038,648.017L755.038,640.766L668.009,640.766L668.009,648.017ZM1167.67,648.017L1247.33,648.017L1247.33,640.766L1167.67,640.766L1167.67,648.017ZM926.366,609.004C928.27,609.004 929.875,609.664 931.18,610.985C932.486,612.305 933.138,613.902 933.138,615.776C933.138,617.649 932.478,619.246 931.157,620.567C929.837,621.887 928.24,622.548 926.366,622.548C924.523,622.548 922.942,621.887 921.621,620.567C920.301,619.246 919.64,617.649 919.64,615.776C919.64,613.902 920.293,612.305 921.598,610.985C922.903,609.664 924.493,609.004 926.366,609.004ZM898.648,519.836L898.648,519.836L898.648,519.836L898.648,519.836L993.678,520.348C998.187,520.372 1001.86,516.737 1001.89,512.227C1001.94,508.785 1001.96,504.944 1001.83,502.18C1001.23,489.287 996.841,477.052 988.096,466.682C972.528,448.211 947.379,441.22 924.007,441.22C894.483,441.22 864.193,455.288 849.367,481.584C843.562,491.879 840.735,503.388 841.143,515.197C840.733,527.008 843.562,538.517 849.367,548.81C864.193,575.108 894.483,589.174 924.007,589.174C951.845,589.174 980.797,576.497 996.312,552.726C999.986,547.1 1002.79,540.974 1004.61,534.501L1006.25,528.632C1006.48,527.804 1006.2,526.965 1005.52,526.441C1004.84,525.918 1003.96,525.867 1003.22,526.304L997.69,529.573C988.288,535.137 949.177,556.968 915.67,544.391C898.752,538.041 898.393,521.722 898.648,519.836ZM1238.34,560.456L1238.34,448.599C1238.34,447.464 1237.41,446.539 1236.28,446.539L1169.5,446.539C1168.78,446.539 1168.16,446.881 1167.77,447.496C1167.38,448.108 1167.33,448.818 1167.64,449.473L1176.43,468.178L1176.43,560.456L1167.61,580.899C1167.33,581.554 1167.39,582.25 1167.78,582.846C1168.18,583.442 1168.79,583.774 1169.5,583.774L1245.26,583.774C1245.98,583.774 1246.59,583.442 1246.99,582.846C1247.38,582.25 1247.44,581.554 1247.15,580.899L1238.34,560.456L1238.34,560.456ZM1099.31,531.011L1095.95,538.887L1065.64,465.114L1065.64,448.599C1065.64,447.464 1064.71,446.539 1063.58,446.539L991.592,446.539C990.883,446.539 990.276,446.865 989.882,447.453C989.488,448.041 989.418,448.726 989.688,449.381L1044.39,582.498C1044.71,583.286 1045.44,583.774 1046.3,583.774L1102.35,583.774C1103.2,583.774 1103.92,583.299 1104.25,582.522L1160.96,449.406C1161.55,448.044 1160.55,446.541 1159.07,446.541L1096.17,446.541C1094.02,446.541 1092.82,449.023 1094.15,450.714L1118.41,481.376C1119.25,482.439 1119.43,483.779 1118.9,485.025L1099.33,530.962C1099.32,530.978 1099.31,530.994 1099.31,531.011L1099.31,531.011ZM677.005,560.327L668.185,580.772C667.901,581.427 667.963,582.121 668.354,582.719C668.748,583.315 669.361,583.647 670.075,583.647L835.087,583.647C836.22,583.647 837.145,582.722 837.145,581.586L837.145,519.038C837.145,517.902 836.22,516.977 835.087,516.977L792.295,516.977C791.168,516.977 790.245,517.889 790.234,519.016C790.032,540.802 773.185,557.916 752.395,562.183C748.163,562.18 743.934,562.174 739.702,562.166L738.909,560.327L738.909,418.193L747.726,397.748C748.009,397.093 747.95,396.397 747.556,395.801C747.165,395.205 746.55,394.873 745.835,394.873L670.075,394.873C669.361,394.873 668.748,395.205 668.354,395.801C667.963,396.397 667.901,397.093 668.185,397.748L677.005,418.193L677.005,560.327ZM891.907,493.379C891.907,488.219 893.342,483.234 896.05,478.846C901.742,469.608 912.067,464.327 922.823,464.327C933.582,464.327 943.907,469.608 949.599,478.846C952.304,483.237 953.742,488.219 953.742,493.379C953.742,494.296 953.696,495.213 953.604,496.125L892.045,496.125C891.953,495.213 891.907,494.296 891.907,493.379L891.907,493.379ZM1204.86,438.853C1204.31,438.25 1180.72,414.808 1180.3,414.353C1179.09,413.045 1178.52,412.354 1179.53,411.09C1179.9,410.636 1202.67,387.541 1203.36,386.716C1204.68,385.128 1207,385.277 1208.08,386.978C1208.98,388.406 1230.27,410.399 1231.64,411.76C1232.25,412.364 1232.17,413.013 1231.77,413.729C1231.09,414.964 1209.54,436.849 1208.43,438.446C1207.62,439.599 1206.3,439.692 1204.86,438.853Z" style="fill:rgb(44,44,44);"/>
            </g>
        </g>
    </g>
</svg>
